<mxfile host="app.diagrams.net" modified="2023-06-03T07:47:56.756Z" agent="Mozilla/5.0 (Macintosh; Intel Mac OS X 10_15_7) AppleWebKit/537.36 (KHTML, like Gecko) Chrome/111.0.0.0 Safari/537.36 Edg/111.0.1661.44" version="21.3.7" etag="H0qJ6hu4IOXGvex269bv" type="github">
  <diagram name="第 1 页" id="mbRKFZFm2OmRBq_oReJK">
    <mxGraphModel>
      <root>
        <mxCell id="0" />
        <mxCell id="1" parent="0" />
      </root>
    </mxGraphModel>
  </diagram>
</mxfile>
